<?xml version="1.0" encoding="UTF-8" standalone="no"?>
<!-- Created with Inkscape (http://www.inkscape.org/) -->

<svg
   xmlns:dc="http://purl.org/dc/elements/1.1/"
   xmlns:cc="http://creativecommons.org/ns#"
   xmlns:rdf="http://www.w3.org/1999/02/22-rdf-syntax-ns#"
   xmlns:svg="http://www.w3.org/2000/svg"
   xmlns="http://www.w3.org/2000/svg"
   xmlns:sodipodi="http://sodipodi.sourceforge.net/DTD/sodipodi-0.dtd"
   xmlns:inkscape="http://www.inkscape.org/namespaces/inkscape"
   width="163.52132"
   height="55.92815"
   viewBox="0 0 43.265014 14.797656"
   version="1.1"
   id="svg6253"
   inkscape:version="0.92.0 r15299"
   sodipodi:docname="imperial brands.svg">
  <defs
     id="defs6247">
    <clipPath
       id="clipPath6164"
       clipPathUnits="userSpaceOnUse">
      <path
         inkscape:connector-curvature="0"
         id="path6162"
         d="M 42.52,715.651 H 164.41 V 756.85 H 42.52 Z" />
    </clipPath>
  </defs>
  <sodipodi:namedview
     id="base"
     pagecolor="#ffffff"
     bordercolor="#666666"
     borderopacity="1.0"
     inkscape:pageopacity="0.0"
     inkscape:pageshadow="2"
     inkscape:zoom="5.5192758"
     inkscape:cx="81.260661"
     inkscape:cy="27.464075"
     inkscape:document-units="mm"
     inkscape:current-layer="layer1"
     showgrid="false"
     fit-margin-top="0"
     fit-margin-left="0"
     fit-margin-right="0"
     fit-margin-bottom="0"
     units="px"
     inkscape:window-width="1280"
     inkscape:window-height="744"
     inkscape:window-x="-4"
     inkscape:window-y="-4"
     inkscape:window-maximized="1" />
  <metadata
     id="metadata6250">
    <rdf:RDF>
      <cc:Work
         rdf:about="">
        <dc:format>image/svg+xml</dc:format>
        <dc:type
           rdf:resource="http://purl.org/dc/dcmitype/StillImage" />
        <dc:title></dc:title>
      </cc:Work>
    </rdf:RDF>
  </metadata>
  <g
     inkscape:label="Layer 1"
     inkscape:groupmode="layer"
     id="layer1"
     transform="translate(-48.047322,-147.34935)">
    <path
       inkscape:connector-curvature="0"
       id="path6168"
       style="fill:#4b3c32;fill-opacity:1;fill-rule:nonzero;stroke:none;stroke-width:0.35277778"
       d="m 67.727027,155.59662 h 1.705328 c 0.883002,0 1.368425,0.18803 1.368425,1.03752 0,0.56339 -0.215548,0.80574 -0.596195,0.89994 0.397581,0.0716 0.701322,0.34184 0.701322,0.97084 0,0.82797 -0.419805,1.13171 -1.36913,1.13171 h -1.80975 z m 1.705328,1.65488 c 0.30868,0 0.551391,-0.049 0.551391,-0.48472 0,-0.44132 -0.248002,-0.50764 -0.551391,-0.50764 h -0.905228 v 0.99236 z m 0.104422,1.71062 c 0.309386,0 0.551744,-0.0818 0.551744,-0.52317 0,-0.44132 -0.242358,-0.55174 -0.551744,-0.55174 h -1.00965 v 1.07491 z m 5.512858,0.67451 h -0.926747 l -0.866422,-1.28587 h -0.767292 v 1.28587 h -0.805392 v -4.04001 h 1.611137 c 0.998713,0 1.48978,0.23707 1.48978,1.36878 0,0.78951 -0.248708,1.0929 -0.717197,1.20861 z m -1.754716,-1.96603 c 0.43568,0 0.678744,-0.0759 0.678744,-0.69356 0,-0.62406 -0.270228,-0.71261 -0.689681,-0.71261 h -0.794808 v 1.40617 z m 2.871963,1.96603 h -0.811389 l 1.567392,-4.06753 h 0.744714 l 1.567392,4.06753 h -0.855486 l -0.270581,-0.72849 H 76.43711 Z m 1.109134,-3.00919 c 0,0 -0.59055,1.61254 -0.596195,1.61254 h 1.186392 z m 2.591505,3.00919 h 0.777875 v -2.74249 l 1.887008,2.74249 h 0.695678 v -4.04001 h -0.77858 v 2.57175 l -1.776589,-2.57175 h -0.805392 z m 4.289778,-4.04001 h 1.512005 c 1.196975,0 1.826331,0.28152 1.826331,2.02001 0,1.73813 -0.629356,2.02 -1.826331,2.02 h -1.512005 z m 1.506714,3.37114 c 0.705908,0 0.976489,-0.29174 0.976489,-1.21849 v -0.26494 c 0,-0.93309 -0.270581,-1.22519 -0.976489,-1.22519 h -0.695678 v 2.70862 z m 3.926769,0.71262 c -0.612775,0 -1.219553,-0.10513 -1.40723,-0.15981 l 0.127,-0.69039 c 0.165452,0.0385 0.899583,0.14923 1.285522,0.14923 0.574322,0 0.750358,-0.0776 0.750358,-0.49707 0,-0.375 -0.116064,-0.40252 -0.777875,-0.53446 -1.103489,-0.22084 -1.374069,-0.39158 -1.374069,-1.26964 0,-0.84455 0.541161,-1.13136 1.462264,-1.13136 0.491066,0 1.169811,0.0829 1.346552,0.13793 l -0.127,0.68439 c -0.254,-0.0384 -0.761647,-0.11571 -1.224844,-0.11571 -0.469195,0 -0.634647,0.10478 -0.634647,0.43639 0,0.38029 0.126647,0.42474 0.761294,0.55174 1.059744,0.20955 1.401939,0.3422 1.401939,1.25801 0,0.90487 -0.508,1.18075 -1.589264,1.18075" />
    <path
       d="m 67.726921,154.66945 h 0.404636 V 150.7 h -0.404636 z m 3.341864,-1.16205 1.293989,-2.01718 v 3.17923 h 0.399344 V 150.7 H 72.412163 L 70.904391,152.97682 69.402616,150.7 h -0.350309 v 3.96945 h 0.377825 v -3.17923 l 1.293989,2.01718 z M 73.629246,150.7 h 1.432631 c 0.912989,0 1.339144,0.34995 1.339144,1.24142 0,0.89077 -0.442383,1.25166 -1.350433,1.25166 h -1.02235 v 1.47637 h -0.398992 z m 1.432631,2.12689 c 0.557741,0 0.940152,-0.0928 0.940152,-0.87489 0,-0.78175 -0.398991,-0.88582 -0.951441,-0.88582 h -1.02235 v 1.76071 z m 1.975202,1.84256 h 2.329039 v -0.37147 h -1.930047 v -1.54199 h 1.476375 v -0.37148 h -1.476375 v -1.31269 h 1.930047 V 150.7 h -2.329039 z m 5.910086,0 h -0.470252 l -0.972962,-1.5307 h -1.044222 v 1.5307 H 80.060738 V 150.7 h 1.377244 c 0.913342,0 1.33985,0.32279 1.33985,1.2139 0,0.72179 -0.300919,1.06645 -0.836789,1.17546 z m -1.509183,-1.89159 c 0.558094,0 0.940506,-0.0709 0.940506,-0.85302 0,-0.78211 -0.398992,-0.85866 -0.951089,-0.85866 h -0.96767 v 1.71168 z m 2.217208,1.89159 h 0.404636 V 150.7 H 83.65519 Z m 1.372659,0 h -0.3937 l 1.525058,-3.99662 h 0.355247 l 1.525411,3.99662 h -0.41028 l -0.365831,-0.96202 h -1.870075 z m 1.300691,-3.41171 -0.792691,2.08315 h 1.585736 z M 88.553157,150.7 h 0.398992 v 3.59798 h 2.093383 v 0.37147 h -2.492375 z"
       style="fill:#4b3c32;fill-opacity:1;fill-rule:nonzero;stroke:none;stroke-width:0.35277778"
       id="path6170"
       inkscape:connector-curvature="0" />
    <path
       inkscape:connector-curvature="0"
       id="path6174"
       style="fill:#4b3c32;fill-opacity:1;fill-rule:nonzero;stroke:none;stroke-width:0.35277778"
       d="m 59.347673,155.46825 c -0.160867,0.52776 -0.718961,0.82444 -1.246011,0.66322 -0.527403,-0.16122 -0.824089,-0.71966 -0.663222,-1.24707 0.161572,-0.52705 0.719666,-0.82373 1.246716,-0.66251 0.52705,0.16122 0.824089,0.71896 0.662517,1.24636" />
    <path
       inkscape:connector-curvature="0"
       id="path6178"
       style="fill:#f07300;fill-opacity:1;fill-rule:nonzero;stroke:none;stroke-width:0.35277778"
       d="m 57.407713,156.55752 c -0.438503,-0.31256 -0.703792,-0.81915 -0.7112,-1.35784 -0.0081,-0.067 -0.05045,-0.12594 -0.115358,-0.15275 l -4.609395,-1.41076 c 0,0 -0.141816,-0.0226 -0.212372,-0.0233 -0.384528,-0.004 -0.741892,0.24272 -0.860425,0.62936 -0.1397,0.45649 0.106539,0.93804 0.551392,1.0982 l 2.92735,0.89852 -5.690306,3.02578 0.0011,0.001 -0.0018,7e-4 c -0.468842,0.25153 -0.64382,0.83609 -0.391936,1.30422 0.126647,0.23531 0.337961,0.39652 0.575733,0.46708 0.08467,0.025 0.173214,0.0388 0.262114,0.0399 0.156633,0.001 0.316442,-0.0353 0.464608,-0.11606 0.01305,-0.006 5.630686,-2.99014 5.630686,-2.99014 l -0.870655,2.84409 h 7.05e-4 c -0.116416,0.45932 0.145345,0.93416 0.60325,1.07456 l 0.0092,0.003 c 0.08079,0.0233 0.162278,0.0349 0.243064,0.0363 0.372534,0.004 0.718961,-0.22719 0.849842,-0.59161 l 0.0014,7.1e-4 1.405467,-4.59529 c 0.01552,-0.0702 -0.0099,-0.14146 -0.06244,-0.18591 m 6.497108,1.49049 c 0.1143,-0.37395 -0.08678,-0.768 -0.45085,-0.89888 l 3.53e-4,-0.001 -3.476625,-1.06362 c -0.07232,-0.018 -0.14605,0.007 -0.191911,0.0617 -0.314325,0.45191 -0.832556,0.72496 -1.383947,0.72778 l -3.53e-4,7.1e-4 c -0.07514,0.005 -0.142522,0.055 -0.167217,0.13088 l -1.065036,3.48297 0.0035,7.1e-4 c -0.0956,0.37324 0.117828,0.75988 0.490714,0.87418 l 0.0074,0.001 c 0.06526,0.0198 0.131939,0.0296 0.196497,0.0303 0.303037,0.003 0.584906,-0.18485 0.691445,-0.48119 l 0.0032,3.6e-4 0.730955,-2.39007 1.642181,3.07692 0.0018,-3.5e-4 7.05e-4,0.001 c 0.103364,0.19226 0.27552,0.3242 0.468842,0.38135 0.06914,0.0205 0.141111,0.031 0.213431,0.0321 0.128763,0.002 0.259291,-0.0286 0.380294,-0.0938 0.381706,-0.20567 0.525286,-0.68122 0.319969,-1.06328 l -1.6129,-3.02789 2.320925,0.71014 -3.52e-4,-3.5e-4 c 0.05786,0.0152 0.115711,0.0219 0.172508,0.0226 0.314678,0.004 0.607131,-0.19791 0.704497,-0.5147 m -11.260313,-5.04543 -0.0011,0.001 4.162425,1.26929 c 0.07126,0.0176 0.143933,-0.006 0.189795,-0.0589 0.305152,-0.44344 0.80645,-0.71649 1.343025,-0.73378 l 7.05e-4,-0.001 c 0.07338,-0.005 0.139347,-0.0533 0.165453,-0.12629 l 1.264003,-4.14444 -0.0035,-10e-4 c 0.107597,-0.4244 -0.135114,-0.86219 -0.5588,-0.9906 l -0.0187,-0.005 c -0.07444,-0.0212 -0.149225,-0.031 -0.223309,-0.0307 -0.339725,0.001 -0.65405,0.21343 -0.77223,0.54645 l -0.830792,2.71075 -1.865136,-3.48791 -0.0021,0.001 -7.05e-4,-0.001 c -0.119239,-0.22225 -0.318911,-0.37218 -0.543631,-0.43533 -0.07902,-0.0226 -0.161219,-0.0332 -0.244122,-0.0328 -0.141464,0 -0.285397,0.0346 -0.418747,0.10618 -0.433211,0.23389 -0.594783,0.77364 -0.360892,1.20615 l 1.832328,3.43217 -2.632781,-0.80327 c 0,0 -0.137583,-0.025 -0.205669,-0.025 -0.353483,0.001 -0.67945,0.23037 -0.787753,0.58491 -0.129822,0.42474 0.09948,0.87136 0.512234,1.01988 m 6.704541,0.77117 c 0.454378,0.30939 0.731308,0.82409 0.740833,1.37266 0.006,0.0748 0.05574,0.14182 0.130881,0.16651 l 2.215797,0.67769 c 0,0 0.09208,0.0148 0.137583,0.0145 0.2286,-0.002 0.439209,-0.14993 0.509412,-0.38029 l 0.0021,-0.006 c 0.08043,-0.2734 -0.06844,-0.56092 -0.334786,-0.65652 l -1.766358,-0.54292 2.274711,-1.21462 -7.06e-4,-0.001 0.0014,-10e-4 c 0.14217,-0.0759 0.239537,-0.2032 0.28187,-0.34678 0.04163,-0.14182 0.02999,-0.29916 -0.04551,-0.43921 -0.105834,-0.19615 -0.308328,-0.30692 -0.516467,-0.30516 -0.09137,3.6e-4 -0.183797,0.0226 -0.269875,0.0692 l -2.239081,1.19309 0.522817,-1.7085 0.0021,-0.008 -3.53e-4,3.6e-4 c 0.07091,-0.27764 -0.08749,-0.56409 -0.364067,-0.64876 -0.05398,-0.0166 -0.10795,-0.024 -0.161572,-0.0236 -0.221192,0.002 -0.425097,0.14041 -0.503061,0.35737 l -0.0011,-0.001 -0.681214,2.22814 c -0.02293,0.0773 0.0053,0.15734 0.06456,0.20426" />
  </g>
</svg>
